<svg width="8" height="12" viewBox="0 0 8 12" fill="none" xmlns="http://www.w3.org/2000/svg">
<g clip-path="url(#clip0_4_17162)">
<path d="M4.00699 7.00034C5.12163 7.00034 6.23628 7.00034 7.35282 7.00034C7.70981 7.00034 7.94148 7.16688 7.99464 7.46048C8.02693 7.63732 7.94907 7.78326 7.82375 7.91375C7.47815 8.27603 7.13445 8.64002 6.79075 9.0023C6.0255 9.80926 5.26025 10.6162 4.495 11.4249C4.19308 11.7443 3.80761 11.746 3.50758 11.4283C2.39863 10.2608 1.29728 9.08986 0.182636 7.9292C-0.161062 7.57036 0.0345229 7.16001 0.340243 7.05184C0.442783 7.01579 0.562413 7.00377 0.672548 7.00205C1.7834 7.00034 2.89424 7.00034 4.00699 7.00034Z" fill="white"/>
</g>
<g clip-path="url(#clip1_4_17162)">
<path d="M3.99301 5.00034C2.87837 5.00034 1.76372 5.00034 0.647178 5.00034C0.290187 5.00034 0.0585241 4.83379 0.0053554 4.54019C-0.026926 4.36335 0.0509282 4.21741 0.176255 4.08692C0.521852 3.72464 0.86555 3.36065 1.20925 2.99837C1.9745 2.19141 2.73975 1.38444 3.505 0.575759C3.80692 0.256407 4.19239 0.25469 4.49242 0.572325C5.60137 1.73985 6.70272 2.91081 7.81736 4.07147C8.16106 4.43031 7.96548 4.84066 7.65976 4.94883C7.55722 4.98488 7.43759 4.9969 7.32745 4.99862C6.2166 5.00034 5.10576 5.00034 3.99301 5.00034Z" fill="white"/>
</g>
<defs>
<clipPath id="clip0_4_17162">
<rect width="8" height="4.66667" fill="white" transform="translate(0 7)"/>
</clipPath>
<clipPath id="clip1_4_17162">
<rect width="8" height="4.66667" fill="white" transform="translate(8 5) rotate(-180)"/>
</clipPath>
</defs>
</svg>
