<svg width="24" height="24" viewBox="0 0 24 24" fill="none" xmlns="http://www.w3.org/2000/svg">
<g clip-path="url(#clip0_1664_44)">
<path d="M12.401 19.4946C10.6805 19.4946 8.96438 19.499 7.2439 19.4946C5.89179 19.4903 4.7867 18.6192 4.48767 17.3191C4.44 17.1068 4.42267 16.8858 4.42267 16.6691C4.42267 14.5542 4.42267 12.4394 4.42267 10.3245C4.42267 9.37546 4.80403 8.61706 5.54943 8.02768C7.23957 6.70157 8.92538 5.37113 10.6112 4.04068C11.7249 3.16094 13.1031 3.15227 14.2168 4.02768C15.9156 5.36246 17.6101 6.69724 19.3089 8.03635C20.0456 8.61706 20.4227 9.37979 20.4227 10.3202C20.4227 12.435 20.427 14.5499 20.4227 16.6604C20.4183 18.1035 19.4563 19.2216 18.0305 19.4556C17.8571 19.4816 17.6838 19.4816 17.5061 19.4816C15.8073 19.4816 14.1085 19.4816 12.4053 19.4816L12.401 19.4946ZM12.4183 18.6972C14.1171 18.6972 15.8203 18.6972 17.5191 18.6972C18.7585 18.6972 19.6209 17.8435 19.6209 16.6084C19.6209 14.5196 19.6209 12.4307 19.6209 10.3375C19.6209 9.64848 19.3522 9.09377 18.8105 8.66907C17.1074 7.32996 15.4086 5.98651 13.7054 4.6474C12.8994 4.01468 11.9286 4.02335 11.1182 4.6604C9.42375 5.99084 7.73361 7.32562 6.03914 8.65607C5.48442 9.08944 5.2114 9.65282 5.21573 10.3549C5.21573 12.4307 5.21573 14.5109 5.21573 16.5867C5.21573 17.8478 6.06947 18.6929 7.33491 18.6929C9.02939 18.6929 10.7239 18.6929 12.4183 18.6929V18.6972Z" fill="black" stroke="black"/>
<path d="M12.4183 15.9018C13.0727 15.9018 13.7271 15.9018 14.3858 15.9018C14.6459 15.9018 14.8149 16.0665 14.8192 16.2962C14.8192 16.5302 14.6459 16.6905 14.3772 16.7035C14.3252 16.7035 14.2775 16.7035 14.2255 16.7035C13.0381 16.7035 11.855 16.7035 10.6675 16.7035C10.5982 16.7035 10.5288 16.7035 10.4595 16.7035C10.1908 16.6949 10.0131 16.5302 10.0175 16.2962C10.0175 16.0621 10.1952 15.9018 10.4682 15.8975C11.1182 15.8975 11.7683 15.8975 12.414 15.8975L12.4183 15.9018Z" fill="black"/>
</g>
<defs>
<clipPath id="clip0_1664_44">
<rect width="18" height="19" fill="white" transform="translate(3.96265 1.84814)"/>
</clipPath>
</defs>
</svg>
