<svg width="21" height="20" viewBox="0 0 21 20" fill="none" xmlns="http://www.w3.org/2000/svg">
<g clip-path="url(#clip0_1664_68)">
<path d="M18.7249 10.3915C18.7581 14.3245 15.8926 17.7024 11.9905 18.3168C10.2043 18.599 8.51767 18.3049 6.93783 17.4177C6.82872 17.356 6.74806 17.356 6.63657 17.4011C5.89173 17.7142 5.14451 18.0202 4.39966 18.331C4.10314 18.4543 3.81612 18.4449 3.56704 18.2385C3.33695 18.0463 3.31797 17.7807 3.37016 17.4984C3.54095 16.5519 3.70937 15.6054 3.8683 14.6566C3.88491 14.5593 3.85407 14.4407 3.80663 14.3529C2.24814 11.421 2.362 8.55071 4.22175 5.80853C5.45051 3.99385 7.22486 2.93351 9.38587 2.5943C12.1541 2.15783 14.5524 2.95012 16.5331 4.94033C17.9232 6.33751 18.7083 8.31824 18.7249 10.3915ZM4.69855 16.7796C4.79343 16.7417 4.85036 16.7203 4.90967 16.6966C5.39595 16.495 5.87987 16.291 6.36852 16.0964C6.60574 16.0016 6.84532 16.0016 7.0683 16.1439C8.52716 17.0666 10.1141 17.4272 11.8173 17.1426C16.8818 16.2957 19.1329 10.5694 16.2508 6.50831C14.5974 4.17888 12.2348 3.2917 9.43331 3.76138C6.30685 4.28325 4.16719 6.93292 3.96081 9.90994C3.85881 11.3807 4.19091 12.7517 4.9666 14.009C5.07334 14.1821 5.09944 14.3577 5.06385 14.5593C4.93576 15.2852 4.82427 16.0134 4.69855 16.7772V16.7796Z" fill="black"/>
<path d="M10.7451 6.67444C12.019 6.67444 13.1101 7.67785 13.1955 8.95168C13.2382 9.58504 12.9939 10.1354 12.5954 10.6122C12.3772 10.8707 12.1139 11.0913 11.8814 11.338C11.7485 11.478 11.6157 11.6227 11.5185 11.784C11.4378 11.9168 11.3785 12.0758 11.3643 12.23C11.3216 12.6427 11.0583 12.8823 10.6597 12.8372C10.2944 12.7969 10.0809 12.498 10.1355 12.1019C10.2375 11.3902 10.5909 10.8185 11.1199 10.3441C11.3144 10.1686 11.49 9.9717 11.6726 9.78193C12.3677 9.05368 11.7201 8.10483 11.0488 7.9459C10.2755 7.76324 9.54484 8.30883 9.50926 9.11061C9.49503 9.46643 9.34796 9.66569 9.05618 9.73923C8.63157 9.8436 8.28287 9.57081 8.27575 9.13196C8.25915 7.80357 9.3954 6.67444 10.7475 6.67681L10.7451 6.67444Z" fill="black"/>
<path d="M11.3548 14.0731C11.3548 14.4076 11.0773 14.6851 10.7428 14.6875C10.4012 14.6875 10.1189 14.4028 10.1237 14.0589C10.1308 13.722 10.4083 13.4516 10.7452 13.454C11.0796 13.4564 11.3548 13.7363 11.3548 14.0707V14.0731Z" fill="black"/>
</g>
<defs>
<clipPath id="clip0_1664_68">
<rect width="16" height="15.9407" fill="white" transform="translate(2.72498 2.47815)"/>
</clipPath>
</defs>
</svg>
