<svg width="16" height="16" viewBox="0 0 16 16" fill="none" xmlns="http://www.w3.org/2000/svg">
<path fill-rule="evenodd" clip-rule="evenodd" d="M7.25 2.5C4.62665 2.5 2.5 4.62665 2.5 7.25C2.5 9.87335 4.62665 12 7.25 12C9.87335 12 12 9.87335 12 7.25C12 4.62665 9.87335 2.5 7.25 2.5ZM1.5 7.25C1.5 4.07436 4.07436 1.5 7.25 1.5C10.4256 1.5 13 4.07436 13 7.25C13 10.4256 10.4256 13 7.25 13C4.07436 13 1.5 10.4256 1.5 7.25Z" fill="#474747" stroke="#474747" stroke-width="0.5" stroke-linecap="round" stroke-linejoin="round"/>
<path fill-rule="evenodd" clip-rule="evenodd" d="M10.6085 10.609C10.8038 10.4137 11.1204 10.4137 11.3157 10.609L14.3532 13.6465C14.5484 13.8418 14.5484 14.1584 14.3532 14.3536C14.1579 14.5489 13.8413 14.5489 13.6461 14.3536L10.6085 11.3161C10.4133 11.1208 10.4133 10.8042 10.6085 10.609Z" fill="#474747" stroke="#474747" stroke-width="0.5" stroke-linecap="round" stroke-linejoin="round"/>
</svg>
