<svg width="21" height="20" viewBox="0 0 21 20" fill="none" xmlns="http://www.w3.org/2000/svg">
<g clip-path="url(#clip0_4_17194)">
<path d="M0 4.33546C0.106206 3.99637 0.167626 3.63552 0.326296 3.3233C0.882917 2.22286 1.79655 1.63424 3.03263 1.56771C3.38196 1.54851 3.73257 1.56515 4.10365 1.56515C4.10365 1.31307 4.10237 1.08146 4.10365 0.848576C4.10749 0.352095 4.42866 0.00276674 4.88164 0.00148715C5.33461 -0.00107203 5.66091 0.348256 5.66603 0.842178C5.66859 1.07506 5.66603 1.30795 5.66603 1.55107H9.18362C9.18362 1.29131 9.17466 1.02772 9.1849 0.764123C9.20537 0.226695 9.71209 -0.125192 10.215 0.0437136C10.5234 0.14736 10.7319 0.427591 10.7422 0.769241C10.7498 1.0226 10.7434 1.27724 10.7434 1.54595H14.302C14.302 1.2862 14.2917 1.02132 14.3045 0.757725C14.3314 0.14736 14.9853 -0.200688 15.4971 0.121769C15.7351 0.271481 15.8554 0.495409 15.8618 0.77436C15.8682 1.02772 15.8631 1.28108 15.8631 1.56131C16.0921 1.56131 16.3109 1.56515 16.5297 1.56131C17.0211 1.54979 17.5035 1.5869 17.9706 1.75964C19.1363 2.19087 19.9782 3.31819 19.9962 4.56451C20.0192 6.08722 20.0064 7.61121 20.0026 9.13392C20.0013 9.58434 19.6558 9.91959 19.2246 9.91959C18.7857 9.91959 18.4453 9.57922 18.444 9.11473C18.4402 7.67007 18.444 6.22413 18.4415 4.77948C18.4415 4.11025 18.1663 3.59458 17.5573 3.29259C17.382 3.20558 17.1747 3.15184 16.9789 3.13904C16.6168 3.11473 16.2521 3.13264 15.8618 3.13264C15.8618 3.36809 15.8631 3.5997 15.8618 3.8313C15.858 4.3393 15.5317 4.69119 15.071 4.68607C14.618 4.68095 14.302 4.3329 14.2994 3.83258C14.2981 3.60609 14.2994 3.37833 14.2994 3.13776H10.7434C10.7434 3.35273 10.7434 3.56515 10.7434 3.77756C10.7434 4.3265 10.4376 4.68223 9.96673 4.68479C9.49456 4.68735 9.18234 4.33162 9.18106 3.78652C9.18106 3.57282 9.18106 3.35913 9.18106 3.1352H5.66347C5.66347 3.3924 5.67114 3.65728 5.66219 3.91959C5.64171 4.4583 5.13628 4.81019 4.6334 4.64256C4.31862 4.53763 4.11132 4.25229 4.10365 3.89784C4.09853 3.64576 4.10365 3.39368 4.10365 3.10321C3.64299 3.12625 3.19386 3.09938 2.76647 3.17999C2.06782 3.31179 1.60589 3.91959 1.56622 4.6528C1.56366 4.70526 1.56366 4.75645 1.56366 4.80891C1.56366 8.79355 1.56366 12.7769 1.56366 16.7616C1.56366 17.4385 1.82726 17.9721 2.44914 18.2638C2.68714 18.3751 2.97377 18.4263 3.23992 18.4289C5.16059 18.4429 7.08125 18.4378 9.00192 18.434C9.254 18.434 9.48049 18.4877 9.66091 18.672C10.0358 19.0533 9.92194 19.6893 9.4357 19.9209C9.37812 19.949 9.31798 19.9733 9.25912 19.9989H2.77415C2.74472 19.9874 2.71785 19.9682 2.68714 19.9644C1.58797 19.7878 0.786948 19.1979 0.308381 18.1998C0.162508 17.8966 0.101088 17.5523 0 17.2261C0 12.9292 0 8.63233 0 4.33546Z" fill="#474747"/>
<path d="M14.8854 19.9998C14.4388 19.8898 13.9782 19.8181 13.5495 19.662C11.5214 18.9199 10.2354 16.6742 10.6142 14.5475C10.9481 12.6729 12.0204 11.3779 13.8221 10.7932C15.6749 10.1918 17.3499 10.6294 18.6986 12.0382C19.9398 13.3357 20.3147 14.916 19.7901 16.6268C19.2309 18.4528 17.9513 19.5507 16.0678 19.9243C15.9347 19.9512 15.8003 19.9742 15.6673 19.9985H14.8854V19.9998ZM18.4401 15.2692C18.4376 13.5277 17.0083 12.1035 15.268 12.1086C13.5329 12.1137 12.1164 13.5315 12.1126 15.2653C12.1087 17.0056 13.5329 18.4336 15.2757 18.4349C17.0172 18.4349 18.444 17.0094 18.4414 15.2679L18.4401 15.2692Z" fill="#474747"/>
<path d="M5.66342 8.20472C5.66342 8.63466 5.30642 8.98654 4.87647 8.98271C4.44653 8.97887 4.0972 8.62058 4.1036 8.19064C4.11 7.76838 4.45933 7.42417 4.88031 7.42289C5.31026 7.42161 5.6647 7.77477 5.66342 8.20472Z" fill="#474747"/>
<path d="M8.28787 8.98272C7.85792 8.98528 7.5022 8.63339 7.5022 8.20345C7.5022 7.7735 7.85664 7.42034 8.28659 7.4229C8.70885 7.42546 9.0569 7.77094 9.06202 8.19321C9.06714 8.62315 8.71653 8.98016 8.28787 8.98272Z" fill="#474747"/>
<path d="M12.4619 8.20727C12.4594 8.63721 12.1024 8.98782 11.6737 8.9827C11.2438 8.97758 10.8944 8.61802 10.9021 8.18936C10.9098 7.76709 11.2591 7.42416 11.6814 7.42288C12.1113 7.42288 12.4645 7.77733 12.4619 8.20727Z" fill="#474747"/>
<path d="M15.0826 8.98261C14.6526 8.98261 14.2995 8.62816 14.302 8.19822C14.3046 7.76827 14.6616 7.41767 15.0902 7.42278C15.5125 7.4279 15.858 7.77467 15.8618 8.19694C15.8657 8.62688 15.5125 8.98261 15.0826 8.98261Z" fill="#474747"/>
<path d="M4.87654 10.8214C5.30648 10.8175 5.66221 11.1681 5.66477 11.5981C5.66605 12.028 5.31288 12.3825 4.88294 12.3812C4.46067 12.3812 4.11134 12.0357 4.10494 11.6134C4.09855 11.1848 4.44787 10.8252 4.87782 10.8214H4.87654Z" fill="#474747"/>
<path d="M8.28793 12.3812C7.85799 12.3837 7.50354 12.0305 7.50354 11.6006C7.50354 11.1707 7.85927 10.8188 8.28921 10.8213C8.71147 10.8239 9.05952 11.1694 9.06336 11.5916C9.06848 12.0216 8.71787 12.3786 8.28793 12.3812Z" fill="#474747"/>
<path d="M5.66341 15.0161C5.65445 15.4447 5.29105 15.7915 4.86238 15.7787C4.43244 15.7672 4.08951 15.4025 4.10487 14.9725C4.11894 14.5503 4.47467 14.2125 4.89565 14.2189C5.3256 14.2253 5.67364 14.5861 5.66341 15.0148V15.0161Z" fill="#474747"/>
<path d="M8.2841 15.7796C7.85416 15.7796 7.50099 15.4252 7.50355 14.9952C7.50611 14.5653 7.86312 14.2147 8.29178 14.2198C8.71405 14.2249 9.05954 14.5717 9.06337 14.994C9.06721 15.4239 8.71405 15.7796 8.2841 15.7796Z" fill="#474747"/>
<path d="M16.0563 14.4947C16.2112 14.4947 16.334 14.487 16.4569 14.4959C16.8778 14.5241 17.1965 14.8696 17.1901 15.2842C17.1837 15.6911 16.8676 16.0327 16.453 16.0481C16.0436 16.0634 15.6341 16.0634 15.2246 16.0481C14.8254 16.0314 14.5119 15.7154 14.5016 15.3149C14.4876 14.7557 14.4876 14.1965 14.5016 13.6386C14.5119 13.2151 14.8612 12.8939 15.2758 12.8926C15.6904 12.8926 16.0346 13.2138 16.0538 13.6361C16.0666 13.9137 16.0563 14.1927 16.0563 14.4959V14.4947Z" fill="#474747"/>
</g>
<defs>
<clipPath id="clip0_4_17194">
<rect width="20.0205" height="20" fill="white"/>
</clipPath>
</defs>
</svg>
